<?xml version="1.0" encoding="UTF-8" standalone="no"?>
<svg
   xmlns:dc="http://purl.org/dc/elements/1.1/"
   xmlns:cc="http://creativecommons.org/ns#"
   xmlns:rdf="http://www.w3.org/1999/02/22-rdf-syntax-ns#"
   xmlns:svg="http://www.w3.org/2000/svg"
   xmlns="http://www.w3.org/2000/svg"
   xmlns:sodipodi="http://sodipodi.sourceforge.net/DTD/sodipodi-0.dtd"
   xmlns:inkscape="http://www.inkscape.org/namespaces/inkscape"
   sodipodi:docname="drawing.svg"
   inkscape:version="1.0 (5b275a35d9, 2020-05-03)"
   id="svg958"
   version="1.1"
   viewBox="0 0 210 297"
   height="297mm"
   width="210mm">
  <defs
     id="defs952" />
  <sodipodi:namedview
     inkscape:window-maximized="1"
     inkscape:window-y="27"
     inkscape:window-x="0"
     inkscape:window-height="688"
     inkscape:window-width="1280"
     showgrid="false"
     inkscape:document-rotation="0"
     inkscape:current-layer="layer1"
     inkscape:document-units="mm"
     inkscape:cy="434.91061"
     inkscape:cx="533.80718"
     inkscape:zoom="0.23001212"
     inkscape:pageshadow="2"
     inkscape:pageopacity="0.0"
     borderopacity="1.0"
     bordercolor="#666666"
     pagecolor="#ffffff"
     id="base" />
  <metadata
     id="metadata955">
    <rdf:RDF>
      <cc:Work
         rdf:about="">
        <dc:format>image/svg+xml</dc:format>
        <dc:type
           rdf:resource="http://purl.org/dc/dcmitype/StillImage" />
        <dc:title></dc:title>
      </cc:Work>
    </rdf:RDF>
  </metadata>
  <g
     id="layer1"
     inkscape:groupmode="layer"
     inkscape:label="Layer 1">
    <path
       inkscape:transform-center-y="-17.602797"
       inkscape:transform-center-x="-3.8441055"
       style="fill:none;stroke:#000000;stroke-width:16;stroke-linecap:butt;stroke-linejoin:miter;stroke-opacity:1"
       d="m 80.779654,53.535741 c 0,0 27.524866,-45.093704 55.654106,0.02107"
       id="path962" />
    <path
       sodipodi:nodetypes="cc"
       id="path964"
       d="m 171.89982,96.435537 c 0,0 55.88544,12.491983 17.63488,50.227793"
       style="fill:none;stroke:#000000;stroke-width:16;stroke-linecap:butt;stroke-linejoin:miter;stroke-opacity:1" />
    <path
       transform="scale(0.26458333)"
       d="M 171.87695 344.55469 C 124.75635 344.32317 89.170964 354.55824 63.667969 374.00391 C 35.526732 395.4612 23.200804 426.77212 20.138672 454.60547 C 14.014408 510.2722 37.853516 560.22656 37.853516 560.22656 L 93.152344 535.75586 C 93.152344 535.75586 76.596751 494.40926 80.248047 461.2207 C 82.073695 444.62642 87.177422 432.12154 100.33398 422.08984 C 110.64058 414.23124 128.0581 407.05956 157.0918 405.39062 A 101.45567 96.212393 0 0 1 186.75391 347.41406 L 186.87305 344.96289 C 181.74998 344.71352 176.7515 344.57864 171.87695 344.55469 z "
       style="color:#000000;font-style:normal;font-variant:normal;font-weight:normal;font-stretch:normal;font-size:medium;line-height:normal;font-family:sans-serif;font-variant-ligatures:normal;font-variant-position:normal;font-variant-caps:normal;font-variant-numeric:normal;font-variant-alternates:normal;font-variant-east-asian:normal;font-feature-settings:normal;font-variation-settings:normal;text-indent:0;text-align:start;text-decoration:none;text-decoration-line:none;text-decoration-style:solid;text-decoration-color:#000000;letter-spacing:normal;word-spacing:normal;text-transform:none;writing-mode:lr-tb;direction:ltr;text-orientation:mixed;dominant-baseline:auto;baseline-shift:baseline;text-anchor:start;white-space:normal;shape-padding:0;shape-margin:0;inline-size:0;clip-rule:nonzero;display:inline;overflow:visible;visibility:visible;isolation:auto;mix-blend-mode:normal;color-interpolation:sRGB;color-interpolation-filters:linearRGB;solid-color:#000000;solid-opacity:1;vector-effect:none;fill:#000000;fill-opacity:1;fill-rule:nonzero;stroke:none;stroke-width:60.4724;stroke-linecap:butt;stroke-linejoin:miter;stroke-miterlimit:4;stroke-dasharray:none;stroke-dashoffset:0;stroke-opacity:1;color-rendering:auto;image-rendering:auto;shape-rendering:auto;text-rendering:auto;enable-background:accumulate;stop-color:#000000"
       id="path1052" />
    <path
       style="color:#000000;font-style:normal;font-variant:normal;font-weight:normal;font-stretch:normal;font-size:medium;line-height:normal;font-family:sans-serif;font-variant-ligatures:normal;font-variant-position:normal;font-variant-caps:normal;font-variant-numeric:normal;font-variant-alternates:normal;font-variant-east-asian:normal;font-feature-settings:normal;font-variation-settings:normal;text-indent:0;text-align:start;text-decoration:none;text-decoration-line:none;text-decoration-style:solid;text-decoration-color:#000000;letter-spacing:normal;word-spacing:normal;text-transform:none;writing-mode:lr-tb;direction:ltr;text-orientation:mixed;dominant-baseline:auto;baseline-shift:baseline;text-anchor:start;white-space:normal;shape-padding:0;shape-margin:0;inline-size:0;clip-rule:nonzero;display:inline;overflow:visible;visibility:visible;isolation:auto;mix-blend-mode:normal;color-interpolation:sRGB;color-interpolation-filters:linearRGB;solid-color:#000000;solid-opacity:1;vector-effect:none;fill:#000000;fill-opacity:1;fill-rule:nonzero;stroke:none;stroke-width:16;stroke-linecap:butt;stroke-linejoin:miter;stroke-miterlimit:4;stroke-dasharray:none;stroke-dashoffset:0;stroke-opacity:1;color-rendering:auto;image-rendering:auto;shape-rendering:auto;text-rendering:auto;enable-background:accumulate;stop-color:#000000"
       d="M 81.167969,45.544922 C 66.709547,44.841147 56.014062,47.551275 48.568359,53.228516 41.122657,58.905756 37.862923,67.190443 37.052734,74.554688 35.432358,89.283176 41.740234,102.5 41.740234,102.5 l 14.63086,-6.474609 c 0,0 -4.382087,-10.939559 -3.416016,-19.720703 0.483036,-4.390573 1.835399,-7.699299 5.316406,-10.353516 3.481007,-2.654218 10.026118,-5.014418 22.119141,-4.425781 z"
       id="path1056" />
    <path
       id="path968"
       d="m 136.43376,53.556813 c 0,0 52.28893,-7.545039 35.46681,42.889214"
       style="fill:none;stroke:#000000;stroke-width:16;stroke-linecap:butt;stroke-linejoin:miter;stroke-opacity:1" />
    <path
       id="path970"
       d="M 17.330973,144.98945 189.5347,146.66333"
       style="fill:none;stroke:#000000;stroke-width:16;stroke-linecap:butt;stroke-linejoin:miter;stroke-opacity:1" />
    <path
       d="M 56.371094,89.415015 A 15.391602,14.596157 0 0 0 40.979583,104.01124 15.391602,14.596157 0 0 0 56.371094,118.60747 15.391602,14.596157 0 0 0 71.76261,104.01124 15.391602,14.596157 0 0 0 56.371094,89.415015 Z"
       style="opacity:0.99;fill:#ffffff;stroke:none;stroke-width:0.573383;stroke-opacity:0.831081"
       id="path1072" />
    <path
       id="path1080"
       style="opacity:0.99;fill:#ffffff;stroke:none;stroke-width:0.573383;stroke-opacity:0.831081"
       d="M 80.779654,53.535741 A 15.391602,14.596157 0 0 0 65.388143,68.131966 15.391602,14.596157 0 0 0 80.779654,82.728196 15.391602,14.596157 0 0 0 96.17117,68.131966 15.391602,14.596157 0 0 0 80.779654,53.535741 Z" />
    <path
       d="m 136.43376,53.556811 a 15.391602,14.596157 0 0 0 -15.39151,14.596225 15.391602,14.596157 0 0 0 15.39151,14.59623 15.391602,14.596157 0 0 0 15.39152,-14.59623 15.391602,14.596157 0 0 0 -15.39152,-14.596225 z"
       style="opacity:0.99;fill:#ffffff;stroke:none;stroke-width:0.573383;stroke-opacity:0.831081"
       id="path1082" />
    <path
       id="path1084"
       style="opacity:0.99;fill:#ffffff;stroke:none;stroke-width:0.573383;stroke-opacity:0.831081"
       d="M 157.18993,85.204812 A 15.391602,14.596157 0 0 0 141.79842,99.801037 15.391602,14.596157 0 0 0 157.18993,114.39727 15.391602,14.596157 0 0 0 172.58145,99.801037 15.391602,14.596157 0 0 0 157.18993,85.204812 Z" />
    <path
       d="m 189.5347,146.66333 a 15.391602,14.596157 0 0 0 -15.39151,14.59622 15.391602,14.596157 0 0 0 15.39151,14.59624 15.391602,14.596157 0 0 0 15.39152,-14.59624 15.391602,14.596157 0 0 0 -15.39152,-14.59622 z"
       style="opacity:0.99;fill:#ffffff;stroke:none;stroke-width:0.573383;stroke-opacity:0.831081"
       id="path1086" />
    <path
       id="path1088"
       style="opacity:0.99;fill:#ffffff;stroke:none;stroke-width:0.573383;stroke-opacity:0.831081"
       d="m 9.0632612,139.35569 a 15.391602,14.596157 0 0 0 -15.39151,14.59622 15.391602,14.596157 0 0 0 15.39151,14.59624 A 15.391602,14.596157 0 0 0 24.454781,153.95191 15.391602,14.596157 0 0 0 9.0632612,139.35569 Z" />
    <rect
       ry="5.1424417"
       y="56.227238"
       x="102.84241"
       height="54.742798"
       width="10.793848"
       id="rect1090"
       style="opacity:0.99;fill:#000000;stroke:none;stroke-width:1;stroke-opacity:0.831081" />
    <ellipse
       ry="5.1997337"
       rx="4.9253945"
       cy="123.81109"
       cx="108.02381"
       id="path1092"
       style="opacity:0.99;fill:#000000;stroke:none;stroke-width:1;stroke-opacity:0.831081" />
  </g>
  <inkscape:templateinfo>
    <inkscape:name>nodata</inkscape:name>
    <inkscape:date>2020-05-08</inkscape:date>
  </inkscape:templateinfo>
</svg>
